<?xml version="1.0" encoding="utf-8"?>
<!-- Generator: $$$/GeneralStr/196=Adobe Illustrator 27.6.0, SVG Export Plug-In . SVG Version: 6.00 Build 0)  -->
<svg version="1.1" id="_圖層_1" xmlns="http://www.w3.org/2000/svg" xmlns:xlink="http://www.w3.org/1999/xlink" x="0px" y="0px"
	 viewBox="0 0 20 20" style="enable-background:new 0 0 20 20;" xml:space="preserve">
<style type="text/css">
	.st0{fill:#F43930;}
</style>
<g id="_01">
	<path class="st0" d="M19.8,4.4c-0.5-2-2-3.6-4-4.2c-1.9-0.6-3.8-0.2-5.3,0.9C10.3,1.1,10.2,1,10,1H9C5.1,1,2,4.1,2,8v1.6l-1.7,1.7
		C0.1,11.5,0,11.9,0,12.2c0,0.3,0.2,0.6,0.5,0.7L2,13.6V15c0,1.7,1.3,3,3,3h1.6l1.7,1.7C8.5,19.9,8.7,20,9,20h5c0.5,0,1-0.5,1-1
		v-3.2c1.2-0.4,2-1.6,2-2.9v-0.6c0-0.6,0.3-1.2,0.8-1.6C19.6,9.1,20.4,6.8,19.8,4.4L19.8,4.4z M13,18H9.4l-1.7-1.7
		C7.5,16.1,7.3,16,7,16H5c-0.6,0-1-0.5-1-1v-2c0-0.4-0.2-0.7-0.6-0.9l-0.8-0.4l1-1C3.9,10.5,4,10.3,4,10V8c0-2.7,2.1-4.9,4.8-5
		c0,0,0,0.1-0.1,0.1C8.7,3.2,8.6,3.3,8.6,3.4C8.5,3.6,8.4,3.7,8.4,3.9c0,0.1-0.1,0.2-0.1,0.3C8.2,4.4,8.2,4.6,8.1,4.8
		c0,0.1,0,0.2-0.1,0.3C8,5.4,8,5.7,8,6c0,1.3,0.4,2.6,1.2,3.6c0.3,0.4,0.6,0.8,1.1,1.1c0.5,0.4,0.8,1,0.8,1.6V13
		c0,0.2,0,0.5,0.1,0.7c0.1,0.5,0.4,1,0.8,1.4c0.1,0.1,0.3,0.3,0.5,0.4c0.1,0,0.1,0.1,0.2,0.1c0.1,0.1,0.2,0.1,0.4,0.2
		c0,0,0.1,0,0.1,0L13,18L13,18z M15,13c0,0.5-0.4,1-0.9,1c-0.1,0-0.2,0-0.3,0c-0.1,0-0.1,0-0.2,0c-0.1-0.1-0.2-0.1-0.4-0.2
		C13.1,13.5,13,13.3,13,13L15,13L15,13z M16.5,9.1c-0.6,0.5-1,1.2-1.3,1.9h-2.4c-0.2-0.7-0.7-1.4-1.3-1.9c-0.3-0.2-0.5-0.5-0.7-0.7
		C10.3,7.7,10,6.9,10,6s0.3-1.7,0.8-2.4c0.8-1,2-1.6,3.2-1.6c0.4,0,0.8,0.1,1.2,0.2c1.3,0.4,2.3,1.5,2.6,2.7l0,0
		C18.3,6.5,17.8,8.1,16.5,9.1L16.5,9.1z"/>
	<path class="st0" d="M14,3c-1.6,0-3,1.3-3,3c0,0.6,0.4,1,1,1s1-0.4,1-1s0.4-1,1-1c0.5,0,1,0.4,1,1s0.5,1,1,1s1-0.4,1-1
		C17,4.4,15.7,3,14,3z"/>
</g>
</svg>
