<?xml version="1.0" encoding="utf-8"?>
<!-- Generator: $$$/GeneralStr/196=Adobe Illustrator 27.6.0, SVG Export Plug-In . SVG Version: 6.00 Build 0)  -->
<svg version="1.1" id="圖層_1" xmlns="http://www.w3.org/2000/svg" xmlns:xlink="http://www.w3.org/1999/xlink" x="0px" y="0px"
	 viewBox="0 0 16 20" style="enable-background:new 0 0 16 20;" xml:space="preserve">
<style type="text/css">
	.st0{fill:#F24139;}
</style>
<path class="st0" d="M14,0H4C1.8,0,0,1.8,0,4v12c0,2.2,1.8,4,4,4h10c1.1,0,2-0.9,2-2V2C16,0.9,15.1,0,14,0z M2,4c0-1.1,0.9-2,2-2h10
	v10H4c-0.7,0-1.4,0.2-2,0.6V4z M4,18c-1.1,0-2-0.9-2-2s0.9-2,2-2h10v4H4z M6,6h4c0.6,0,1-0.4,1-1s-0.4-1-1-1H6C5.4,4,5,4.4,5,5
	S5.4,6,6,6z"/>
</svg>
