<?xml version="1.0" encoding="utf-8"?>
<!-- Generator: $$$/GeneralStr/196=Adobe Illustrator 27.6.0, SVG Export Plug-In . SVG Version: 6.00 Build 0)  -->
<svg version="1.1" id="Capa_1" xmlns="http://www.w3.org/2000/svg" xmlns:xlink="http://www.w3.org/1999/xlink" x="0px" y="0px"
	 viewBox="0 0 512 512" style="enable-background:new 0 0 512 512;" xml:space="preserve">
<style type="text/css">
	.st0{fill:#F24139;}
</style>
<g id="Computer">
	<g>
		<path class="st0" d="M296,240h-80c-11,0-20-9-20-20s9-20,20-20h80c11,0,20,9,20,20S307,240,296,240z"/>
	</g>
	<g>
		<path class="st0" d="M176,352h160c33.1,0,60-26.9,60-60V140c0-4.9-1.8-10-5.9-14.1l-120-120C266.4,2.1,261.2,0,256,0h-80
			c-33.1,0-60,26.9-60,60v232C116,325.1,142.9,352,176,352z M276,68.3l51.7,51.7H296c-11,0-20-9-20-20V68.3z M156,60
			c0-11,9-20,20-20h60v60c0,33.1,26.9,60,60,60h60v132c0,11-9,20-20,20H176c-11,0-20-9-20-20V60z"/>
		<path class="st0" d="M452,120c-11,0-20,9-20,20s9,20,20,20c11,0,20,9,20,20v192c0,11-9,20-20,20H60c-11,0-20-9-20-20V180
			c0-11,9-20,20-20c11,0,20-9,20-20s-9-20-20-20c-33.1,0-60,26.9-60,60v192c0,33.1,26.9,60,60,60h176v40h-60c-11,0-20,9-20,20
			s9,20,20,20h160c11,0,20-9,20-20s-9-20-20-20h-60v-40h176c33.1,0,60-26.9,60-60V180C512,146.9,485.1,120,452,120z"/>
	</g>
</g>
</svg>
