<?xml version="1.0" encoding="utf-8"?>
<!-- Generator: $$$/GeneralStr/196=Adobe Illustrator 27.6.0, SVG Export Plug-In . SVG Version: 6.00 Build 0)  -->
<svg version="1.1" id="圖層_1" xmlns="http://www.w3.org/2000/svg" xmlns:xlink="http://www.w3.org/1999/xlink" x="0px" y="0px"
	 viewBox="0 0 18.1 18.3" style="enable-background:new 0 0 18.1 18.3;" xml:space="preserve">
<style type="text/css">
	.st0{fill:#F43930;}
</style>
<g id="Card">
	<path class="st0" d="M13,9.4c-0.4-0.4-1-0.4-1.4,0l-0.4,0.4L10,8.6c1.7-2.5,1.1-5.9-1.3-7.6c-2.2-1.5-5.2-1.3-7,0.7
		c-2.2,2.1-2.2,5.6-0.1,7.7c1.9,1.9,4.8,2.2,7,0.7l1.2,1.2l-0.4,0.4c-0.4,0.4-0.4,1,0,1.4l4.9,4.9c0.4,0.4,1,0.4,1.4,0l2.1-2.1
		c0.4-0.4,0.4-1,0-1.4L13,9.4z M3,8C1.6,6.6,1.6,4.4,3,3s3.6-1.4,5,0s1.4,3.6,0,5l0,0C6.6,9.3,4.4,9.3,3,8z M15.1,15.8l-3.5-3.5
		l0.7-0.7l3.5,3.5L15.1,15.8z"/>
</g>
</svg>
