<?xml version="1.0" encoding="UTF-8"?><svg id="Layer_1" xmlns="http://www.w3.org/2000/svg" viewBox="0 0 328.6 314.8"><defs><style>.cls-1{fill:#f43930;}</style></defs><path class="cls-1" d="m68.5,273.7c-30.2,0-54.8-24.6-54.8-54.8s24.6-54.8,54.8-54.8,54.8,24.6,54.8,54.8c-.1,30.3-24.6,54.8-54.8,54.8Zm0-82.1c-15.1,0-27.4,12.3-27.4,27.4s12.3,27.4,27.4,27.4,27.4-12.3,27.4-27.4c0-15.1-12.3-27.4-27.4-27.4Z"/><path class="cls-1" d="m136.9,314.8h-27.4c0-22.6-18.4-41.1-41.1-41.1s-41.1,18.4-41.1,41.1H0c0-37.7,30.7-68.4,68.4-68.4s68.5,30.7,68.5,68.4Z"/><path class="cls-1" d="m260.1,273.7c-30.2,0-54.8-24.6-54.8-54.8s24.6-54.8,54.8-54.8,54.8,24.6,54.8,54.8c0,30.3-24.6,54.8-54.8,54.8Zm0-82.1c-15.1,0-27.4,12.3-27.4,27.4s12.3,27.4,27.4,27.4,27.4-12.3,27.4-27.4c0-15.1-12.3-27.4-27.4-27.4Z"/><path class="cls-1" d="m328.6,314.8h-27.4c0-22.6-18.4-41.1-41.1-41.1s-41.1,18.4-41.1,41.1h-27.4c0-37.7,30.7-68.4,68.4-68.4s68.6,30.7,68.6,68.4Z"/><path class="cls-1" d="m27.4,148.8v-39.3H0V0h205.3v109.5h-119l-58.9,39.3Zm0-66.7h27.4v15.5l23.2-15.5h100V27.3H27.4v54.8Z"/><polygon class="cls-1" points="301.2 211 240.8 150.6 136.9 150.6 136.9 95.8 164.3 95.8 164.3 123.2 252.1 123.2 273.8 144.9 273.8 123.2 301.2 123.2 301.2 54.7 191.7 54.7 191.7 27.4 328.6 27.4 328.6 150.6 301.2 150.6 301.2 211"/></svg>