<?xml version="1.0" encoding="utf-8"?>
<!-- Generator: $$$/GeneralStr/196=Adobe Illustrator 27.6.0, SVG Export Plug-In . SVG Version: 6.00 Build 0)  -->
<svg version="1.1" id="Capa_1" xmlns="http://www.w3.org/2000/svg" xmlns:xlink="http://www.w3.org/1999/xlink" x="0px" y="0px"
	 viewBox="0 0 512 512" style="enable-background:new 0 0 512 512;" xml:space="preserve">
<style type="text/css">
	.st0{fill:#F24139;}
</style>
<g>
	<path class="st0" d="M372,232c-77.2,0-140,62.8-140,140s62.8,140,140,140s140-62.8,140-140S449.2,232,372,232L372,232z M372,472
		c-55.1,0-100-44.9-100-100s44.9-100,100-100s100,44.9,100,100S427.1,472,372,472z"/>
	<path class="st0" d="M372,312c-11,0-20,9-20,20v31.7l-22.4,22.4c-7.8,7.8-7.8,20.5,0,28.3s20.5,7.8,28.3,0l28.2-28.2
		c3.7-3.6,5.9-8.6,5.9-14.2c0,0,0-40,0-40C392,321,383,312,372,312L372,312z"/>
	<path class="st0" d="M383.7,75.4c-5.5-9.6-17.8-12.8-27.3-7.3L330,83.3c-16.6-14.1-35.9-25.1-56.8-32.4V20c0-11-9-20-20-20h-80
		c-11,0-20,9-20,20v30.9c-21,7.4-40.2,18.3-56.8,32.4L70,68c-9.6-5.5-21.8-2.2-27.3,7.3l-40,69.3c-5.5,9.6-2.2,21.8,7.3,27.3
		l26.7,15.4c-2.4,11.5-3.5,22.1-3.5,32.6s1.1,21.1,3.5,32.6L10,268c-9.6,5.5-12.8,17.8-7.3,27.3l40,69.3c5.5,9.6,17.8,12.8,27.3,7.3
		l26.4-15.2c16.6,14.1,35.9,25.1,56.8,32.4V420c0,11,9,20,20,20s20-9,20-20v-45.7c0-9.1-6.2-17.1-15-19.4c-25-6.5-47.4-19.3-64.8-37
		c-6.4-6.5-16.4-7.9-24.3-3.3l-21.8,12.6l-20-34.6l22.3-12.9c7.9-4.6,11.7-13.9,9.3-22.7c-3.9-14.1-5.7-25.9-5.7-37.1
		s1.8-23.1,5.7-37.1c2.4-8.8-1.4-18.1-9.3-22.7l-22.3-12.9l20-34.6l21.8,12.6c7.9,4.6,17.9,3.2,24.3-3.3
		c17.4-17.7,39.8-30.5,64.8-37c8.8-2.3,15-10.2,15-19.4V40h40v25.7c0,9.1,6.2,17.1,15,19.4c25,6.5,47.4,19.3,64.8,37
		c6.4,6.5,16.4,7.9,24.3,3.3l21.8-12.6l20,34.6l-22.3,12.9c-9.6,5.5-12.8,17.8-7.3,27.3c5.5,9.6,17.8,12.8,27.3,7.3l39.6-22.9
		c9.6-5.5,12.8-17.8,7.3-27.3L383.7,75.4z"/>
	<path class="st0" d="M213.2,160c-33.1,0-60,26.9-60,60s26.9,60,60,60s60-26.9,60-60S246.3,160,213.2,160z M213.2,240
		c-11,0-20-9-20-20s9-20,20-20s20,9,20,20S224.2,240,213.2,240z"/>
</g>
</svg>
