<?xml version="1.0" encoding="utf-8"?>
<!-- Generator: $$$/GeneralStr/196=Adobe Illustrator 27.6.0, SVG Export Plug-In . SVG Version: 6.00 Build 0)  -->
<svg version="1.1" id="globe" xmlns="http://www.w3.org/2000/svg" xmlns:xlink="http://www.w3.org/1999/xlink" x="0px" y="0px"
	 viewBox="0 0 96 96" style="enable-background:new 0 0 96 96;" xml:space="preserve">
<style type="text/css">
	.st0{fill:#FFFFFF;}
</style>
<path class="st0" d="M49.7,4c-0.6,0-1.1,0-1.7,0s-1.1,0-1.7,0C22.8,4.9,4,24.3,4,48s18.8,43.1,42.3,44c0.6,0,1.1,0,1.7,0
	s1.1,0,1.7,0C73.2,91.1,92,71.7,92,48S73.2,4.9,49.7,4z M83.8,44H67.9c-0.9-13.4-6.3-24.1-10.7-30.8C71.3,16.9,82.1,29.1,83.8,44z
	 M48,14.2C51.9,19.3,58.7,30,59.8,44H36.2C37.3,30,44.1,19.3,48,14.2z M59.8,52C58.7,66,51.9,76.7,48,81.8
	C44.1,76.7,37.3,66,36.2,52H59.8z M38.9,13.2C34.4,19.9,29,30.6,28.1,44H12.2C13.9,29.1,24.7,16.9,38.9,13.2z M12.2,52h15.9
	c0.9,13.4,6.3,24.1,10.7,30.8C24.7,79.1,13.9,66.9,12.2,52z M57.1,82.8c4.5-6.8,9.8-17.4,10.7-30.8h15.9
	C82.1,66.9,71.3,79.1,57.1,82.8z"/>
</svg>
