<?xml version="1.0" encoding="utf-8"?>
<!-- Generator: $$$/GeneralStr/196=Adobe Illustrator 27.6.0, SVG Export Plug-In . SVG Version: 6.00 Build 0)  -->
<svg version="1.1" id="圖層_1" xmlns="http://www.w3.org/2000/svg" xmlns:xlink="http://www.w3.org/1999/xlink" x="0px" y="0px"
	 viewBox="0 0 24 24" style="enable-background:new 0 0 24 24;" xml:space="preserve">
<style type="text/css">
	.st0{fill:none;}
	.st1{fill:#FFFFFF;}
</style>
<path class="st0" d="M0,0h24v24H0V0z"/>
<path class="st1" d="M20,2h-6c-0.8,0-1.5,0.3-2,0.8C11.5,2.3,10.8,2,10,2H4C2.9,2,2,2.9,2,4v14c0,1.1,0.9,2,2,2h6c0.6,0,1,0.4,1,1
	c0,0.6,0.4,1,1,1s1-0.4,1-1c0-0.6,0.4-1,1-1h6c1.1,0,2-0.9,2-2V4C22,2.9,21.1,2,20,2z M10,18H4V4h6c0.6,0,1,0.4,1,1v13.2
	C10.7,18.1,10.4,18,10,18z M20,18h-6c-0.4,0-0.7,0.1-1,0.2V5c0-0.6,0.4-1,1-1h6V18z"/>
<path class="st1" d="M8,8H7C6.4,8,6,7.6,6,7s0.4-1,1-1h1c0.6,0,1,0.4,1,1S8.6,8,8,8z"/>
<path class="st1" d="M8,12H7c-0.6,0-1-0.4-1-1s0.4-1,1-1h1c0.6,0,1,0.4,1,1S8.6,12,8,12z"/>
<path class="st1" d="M17,8h-1c-0.6,0-1-0.4-1-1s0.4-1,1-1h1c0.6,0,1,0.4,1,1S17.6,8,17,8z"/>
<path class="st1" d="M17,12h-1c-0.6,0-1-0.4-1-1s0.4-1,1-1h1c0.6,0,1,0.4,1,1S17.6,12,17,12z"/>
<path class="st1" d="M17,16h-1c-0.6,0-1-0.4-1-1s0.4-1,1-1h1c0.6,0,1,0.4,1,1S17.6,16,17,16z"/>
</svg>
